<svg xmlns="http://www.w3.org/2000/svg" width="860" height="203" viewBox="0 0 860 203" role="img" aria-label="dhruvan — profile header" font-family="ui-monospace,SFMono-Regular,'SF Mono',Menlo,Consolas,'DejaVu Sans Mono','Liberation Mono',monospace"><title>dhruvan — profile header</title><style>
text{dominant-baseline:middle;white-space:pre}
.fg{fill:#241f19} .mu{fill:#6b6155} .fa{fill:#8f8578}
.ac{fill:#b45309} .a2{fill:#c2410c} .a3{fill:#9f1239}
.ok{fill:#b45309} .wn{fill:#c2410c}

.px{transform-box:fill-box;transform-origin:center;
  animation:rake .45s cubic-bezier(.2,.9,.3,1) both}
@keyframes rake{from{opacity:0;transform:scale(.15)}
  to{opacity:1;transform:scale(1)}}
#sweep{animation:sweep 6s ease-in-out 1.6s infinite}
@keyframes sweep{0%{transform:translateX(0)}
  55%,100%{transform:translateX(944px)}}
#reveal{animation:type 2.4s steps(65,end) .8s both}
#caret{animation:type 2.4s steps(65,end) .8s both,
  blink 1.05s steps(1,end) infinite}
@keyframes type{from{transform:translateX(-507.8px)}
  to{transform:translateX(0)}}
@keyframes blink{50%{opacity:0}}
.rule{stroke-dasharray:860;stroke-dashoffset:860;
  animation:draw 1.5s ease-out .3s forwards}
@keyframes draw{to{stroke-dashoffset:0}}

@media (prefers-reduced-motion:reduce){
  *{animation:none!important}
  .px,.cell,.row,#reveal,#caret{opacity:1!important;transform:none!important}
  .rule{stroke-dashoffset:0!important}
  .rm-hide{display:none}
}
</style><defs>
<linearGradient id="shine" x1="0" y1="0" x2="1" y2="0">
  <stop offset="0" stop-color="#fff" stop-opacity="0"/>
  <stop offset=".5" stop-color="#fff" stop-opacity="0.8"/>
  <stop offset="1" stop-color="#fff" stop-opacity="0"/>
</linearGradient>
<mask id="bm"><g fill="#fff"><rect x="22.0" y="42.0" width="11.0" height="11.0" fill="#b45309" class="pxm" style="animation-delay:0.000s"/><rect x="35.0" y="42.0" width="11.0" height="11.0" fill="#b55209" class="pxm" style="animation-delay:0.014s"/><rect x="48.0" y="42.0" width="11.0" height="11.0" fill="#b55209" class="pxm" style="animation-delay:0.028s"/><rect x="61.0" y="42.0" width="11.0" height="11.0" fill="#b65109" class="pxm" style="animation-delay:0.042s"/><rect x="74.0" y="42.0" width="11.0" height="11.0" fill="#b65009" class="pxm" style="animation-delay:0.056s"/><rect x="113.0" y="42.0" width="11.0" height="11.0" fill="#b84e0a" class="pxm" style="animation-delay:0.098s"/><rect x="126.0" y="42.0" width="11.0" height="11.0" fill="#b84e0a" class="pxm" style="animation-delay:0.112s"/><rect x="165.0" y="42.0" width="11.0" height="11.0" fill="#ba4c0a" class="pxm" style="animation-delay:0.154s"/><rect x="178.0" y="42.0" width="11.0" height="11.0" fill="#ba4b0a" class="pxm" style="animation-delay:0.168s"/><rect x="204.0" y="42.0" width="11.0" height="11.0" fill="#bb4a0b" class="pxm" style="animation-delay:0.196s"/><rect x="217.0" y="42.0" width="11.0" height="11.0" fill="#bc490b" class="pxm" style="animation-delay:0.210s"/><rect x="230.0" y="42.0" width="11.0" height="11.0" fill="#bc490b" class="pxm" style="animation-delay:0.224s"/><rect x="243.0" y="42.0" width="11.0" height="11.0" fill="#bd480b" class="pxm" style="animation-delay:0.238s"/><rect x="256.0" y="42.0" width="11.0" height="11.0" fill="#bd470b" class="pxm" style="animation-delay:0.252s"/><rect x="295.0" y="42.0" width="11.0" height="11.0" fill="#bf450b" class="pxm" style="animation-delay:0.294s"/><rect x="308.0" y="42.0" width="11.0" height="11.0" fill="#bf450b" class="pxm" style="animation-delay:0.308s"/><rect x="347.0" y="42.0" width="11.0" height="11.0" fill="#c1430c" class="pxm" style="animation-delay:0.350s"/><rect x="360.0" y="42.0" width="11.0" height="11.0" fill="#c1420c" class="pxm" style="animation-delay:0.364s"/><rect x="386.0" y="42.0" width="11.0" height="11.0" fill="#c2400d" class="pxm" style="animation-delay:0.392s"/><rect x="399.0" y="42.0" width="11.0" height="11.0" fill="#c03f0e" class="pxm" style="animation-delay:0.406s"/><rect x="438.0" y="42.0" width="11.0" height="11.0" fill="#bc3a13" class="pxm" style="animation-delay:0.448s"/><rect x="451.0" y="42.0" width="11.0" height="11.0" fill="#bb3815" class="pxm" style="animation-delay:0.462s"/><rect x="490.0" y="42.0" width="11.0" height="11.0" fill="#b7331a" class="pxm" style="animation-delay:0.504s"/><rect x="503.0" y="42.0" width="11.0" height="11.0" fill="#b6311b" class="pxm" style="animation-delay:0.518s"/><rect x="516.0" y="42.0" width="11.0" height="11.0" fill="#b52f1d" class="pxm" style="animation-delay:0.532s"/><rect x="529.0" y="42.0" width="11.0" height="11.0" fill="#b42e1e" class="pxm" style="animation-delay:0.546s"/><rect x="568.0" y="42.0" width="11.0" height="11.0" fill="#b02923" class="pxm" style="animation-delay:0.588s"/><rect x="581.0" y="42.0" width="11.0" height="11.0" fill="#af2725" class="pxm" style="animation-delay:0.602s"/><rect x="620.0" y="42.0" width="11.0" height="11.0" fill="#ab222a" class="pxm" style="animation-delay:0.644s"/><rect x="633.0" y="42.0" width="11.0" height="11.0" fill="#aa202c" class="pxm" style="animation-delay:0.658s"/><rect x="22.0" y="55.0" width="11.0" height="11.0" fill="#b55109" class="pxm" style="animation-delay:0.009s"/><rect x="35.0" y="55.0" width="11.0" height="11.0" fill="#b65109" class="pxm" style="animation-delay:0.023s"/><rect x="74.0" y="55.0" width="11.0" height="11.0" fill="#b74f0a" class="pxm" style="animation-delay:0.065s"/><rect x="87.0" y="55.0" width="11.0" height="11.0" fill="#b84e0a" class="pxm" style="animation-delay:0.079s"/><rect x="113.0" y="55.0" width="11.0" height="11.0" fill="#b94d0a" class="pxm" style="animation-delay:0.107s"/><rect x="126.0" y="55.0" width="11.0" height="11.0" fill="#b94c0a" class="pxm" style="animation-delay:0.121s"/><rect x="165.0" y="55.0" width="11.0" height="11.0" fill="#bb4a0a" class="pxm" style="animation-delay:0.163s"/><rect x="178.0" y="55.0" width="11.0" height="11.0" fill="#bb4a0b" class="pxm" style="animation-delay:0.177s"/><rect x="204.0" y="55.0" width="11.0" height="11.0" fill="#bc480b" class="pxm" style="animation-delay:0.205s"/><rect x="217.0" y="55.0" width="11.0" height="11.0" fill="#bd480b" class="pxm" style="animation-delay:0.219s"/><rect x="256.0" y="55.0" width="11.0" height="11.0" fill="#be460b" class="pxm" style="animation-delay:0.261s"/><rect x="269.0" y="55.0" width="11.0" height="11.0" fill="#bf450b" class="pxm" style="animation-delay:0.275s"/><rect x="295.0" y="55.0" width="11.0" height="11.0" fill="#c0440c" class="pxm" style="animation-delay:0.303s"/><rect x="308.0" y="55.0" width="11.0" height="11.0" fill="#c0430c" class="pxm" style="animation-delay:0.317s"/><rect x="347.0" y="55.0" width="11.0" height="11.0" fill="#c2410c" class="pxm" style="animation-delay:0.359s"/><rect x="360.0" y="55.0" width="11.0" height="11.0" fill="#c1400d" class="pxm" style="animation-delay:0.373s"/><rect x="386.0" y="55.0" width="11.0" height="11.0" fill="#be3c11" class="pxm" style="animation-delay:0.401s"/><rect x="399.0" y="55.0" width="11.0" height="11.0" fill="#bd3a12" class="pxm" style="animation-delay:0.415s"/><rect x="438.0" y="55.0" width="11.0" height="11.0" fill="#b93517" class="pxm" style="animation-delay:0.457s"/><rect x="451.0" y="55.0" width="11.0" height="11.0" fill="#b83419" class="pxm" style="animation-delay:0.471s"/><rect x="477.0" y="55.0" width="11.0" height="11.0" fill="#b6301c" class="pxm" style="animation-delay:0.499s"/><rect x="490.0" y="55.0" width="11.0" height="11.0" fill="#b42f1e" class="pxm" style="animation-delay:0.513s"/><rect x="529.0" y="55.0" width="11.0" height="11.0" fill="#b02923" class="pxm" style="animation-delay:0.555s"/><rect x="542.0" y="55.0" width="11.0" height="11.0" fill="#af2824" class="pxm" style="animation-delay:0.569s"/><rect x="568.0" y="55.0" width="11.0" height="11.0" fill="#ad2427" class="pxm" style="animation-delay:0.597s"/><rect x="581.0" y="55.0" width="11.0" height="11.0" fill="#ab2329" class="pxm" style="animation-delay:0.611s"/><rect x="594.0" y="55.0" width="11.0" height="11.0" fill="#aa212b" class="pxm" style="animation-delay:0.625s"/><rect x="620.0" y="55.0" width="11.0" height="11.0" fill="#a81e2e" class="pxm" style="animation-delay:0.653s"/><rect x="633.0" y="55.0" width="11.0" height="11.0" fill="#a61c30" class="pxm" style="animation-delay:0.667s"/><rect x="22.0" y="68.0" width="11.0" height="11.0" fill="#b7500a" class="pxm" style="animation-delay:0.018s"/><rect x="35.0" y="68.0" width="11.0" height="11.0" fill="#b74f0a" class="pxm" style="animation-delay:0.032s"/><rect x="74.0" y="68.0" width="11.0" height="11.0" fill="#b94d0a" class="pxm" style="animation-delay:0.074s"/><rect x="87.0" y="68.0" width="11.0" height="11.0" fill="#b94c0a" class="pxm" style="animation-delay:0.088s"/><rect x="113.0" y="68.0" width="11.0" height="11.0" fill="#ba4b0a" class="pxm" style="animation-delay:0.116s"/><rect x="126.0" y="68.0" width="11.0" height="11.0" fill="#bb4b0a" class="pxm" style="animation-delay:0.130s"/><rect x="139.0" y="68.0" width="11.0" height="11.0" fill="#bb4a0b" class="pxm" style="animation-delay:0.144s"/><rect x="152.0" y="68.0" width="11.0" height="11.0" fill="#bc490b" class="pxm" style="animation-delay:0.158s"/><rect x="165.0" y="68.0" width="11.0" height="11.0" fill="#bc490b" class="pxm" style="animation-delay:0.172s"/><rect x="178.0" y="68.0" width="11.0" height="11.0" fill="#bd480b" class="pxm" style="animation-delay:0.186s"/><rect x="204.0" y="68.0" width="11.0" height="11.0" fill="#be470b" class="pxm" style="animation-delay:0.214s"/><rect x="217.0" y="68.0" width="11.0" height="11.0" fill="#be460b" class="pxm" style="animation-delay:0.228s"/><rect x="230.0" y="68.0" width="11.0" height="11.0" fill="#bf450b" class="pxm" style="animation-delay:0.242s"/><rect x="243.0" y="68.0" width="11.0" height="11.0" fill="#bf450b" class="pxm" style="animation-delay:0.256s"/><rect x="256.0" y="68.0" width="11.0" height="11.0" fill="#c0440b" class="pxm" style="animation-delay:0.270s"/><rect x="295.0" y="68.0" width="11.0" height="11.0" fill="#c1420c" class="pxm" style="animation-delay:0.312s"/><rect x="308.0" y="68.0" width="11.0" height="11.0" fill="#c2410c" class="pxm" style="animation-delay:0.326s"/><rect x="347.0" y="68.0" width="11.0" height="11.0" fill="#bf3d10" class="pxm" style="animation-delay:0.368s"/><rect x="360.0" y="68.0" width="11.0" height="11.0" fill="#be3b12" class="pxm" style="animation-delay:0.382s"/><rect x="386.0" y="68.0" width="11.0" height="11.0" fill="#bb3815" class="pxm" style="animation-delay:0.410s"/><rect x="399.0" y="68.0" width="11.0" height="11.0" fill="#ba3616" class="pxm" style="animation-delay:0.424s"/><rect x="438.0" y="68.0" width="11.0" height="11.0" fill="#b6311b" class="pxm" style="animation-delay:0.466s"/><rect x="451.0" y="68.0" width="11.0" height="11.0" fill="#b52f1d" class="pxm" style="animation-delay:0.480s"/><rect x="477.0" y="68.0" width="11.0" height="11.0" fill="#b22c20" class="pxm" style="animation-delay:0.508s"/><rect x="490.0" y="68.0" width="11.0" height="11.0" fill="#b12a22" class="pxm" style="animation-delay:0.522s"/><rect x="503.0" y="68.0" width="11.0" height="11.0" fill="#b02923" class="pxm" style="animation-delay:0.536s"/><rect x="516.0" y="68.0" width="11.0" height="11.0" fill="#af2725" class="pxm" style="animation-delay:0.550s"/><rect x="529.0" y="68.0" width="11.0" height="11.0" fill="#ad2527" class="pxm" style="animation-delay:0.564s"/><rect x="542.0" y="68.0" width="11.0" height="11.0" fill="#ac2328" class="pxm" style="animation-delay:0.578s"/><rect x="568.0" y="68.0" width="11.0" height="11.0" fill="#a9202c" class="pxm" style="animation-delay:0.606s"/><rect x="581.0" y="68.0" width="11.0" height="11.0" fill="#a81e2d" class="pxm" style="animation-delay:0.620s"/><rect x="594.0" y="68.0" width="11.0" height="11.0" fill="#a71d2f" class="pxm" style="animation-delay:0.634s"/><rect x="607.0" y="68.0" width="11.0" height="11.0" fill="#a61b30" class="pxm" style="animation-delay:0.648s"/><rect x="620.0" y="68.0" width="11.0" height="11.0" fill="#a41932" class="pxm" style="animation-delay:0.662s"/><rect x="633.0" y="68.0" width="11.0" height="11.0" fill="#a31834" class="pxm" style="animation-delay:0.676s"/><rect x="22.0" y="81.0" width="11.0" height="11.0" fill="#b84e0a" class="pxm" style="animation-delay:0.027s"/><rect x="35.0" y="81.0" width="11.0" height="11.0" fill="#b84d0a" class="pxm" style="animation-delay:0.041s"/><rect x="74.0" y="81.0" width="11.0" height="11.0" fill="#ba4b0a" class="pxm" style="animation-delay:0.083s"/><rect x="87.0" y="81.0" width="11.0" height="11.0" fill="#ba4b0a" class="pxm" style="animation-delay:0.097s"/><rect x="113.0" y="81.0" width="11.0" height="11.0" fill="#bb4a0b" class="pxm" style="animation-delay:0.125s"/><rect x="126.0" y="81.0" width="11.0" height="11.0" fill="#bc490b" class="pxm" style="animation-delay:0.139s"/><rect x="165.0" y="81.0" width="11.0" height="11.0" fill="#bd470b" class="pxm" style="animation-delay:0.181s"/><rect x="178.0" y="81.0" width="11.0" height="11.0" fill="#be460b" class="pxm" style="animation-delay:0.195s"/><rect x="204.0" y="81.0" width="11.0" height="11.0" fill="#bf450b" class="pxm" style="animation-delay:0.223s"/><rect x="217.0" y="81.0" width="11.0" height="11.0" fill="#bf440b" class="pxm" style="animation-delay:0.237s"/><rect x="256.0" y="81.0" width="11.0" height="11.0" fill="#c1420c" class="pxm" style="animation-delay:0.279s"/><rect x="269.0" y="81.0" width="11.0" height="11.0" fill="#c1420c" class="pxm" style="animation-delay:0.293s"/><rect x="295.0" y="81.0" width="11.0" height="11.0" fill="#c13f0d" class="pxm" style="animation-delay:0.321s"/><rect x="308.0" y="81.0" width="11.0" height="11.0" fill="#c03e0f" class="pxm" style="animation-delay:0.335s"/><rect x="347.0" y="81.0" width="11.0" height="11.0" fill="#bc3914" class="pxm" style="animation-delay:0.377s"/><rect x="360.0" y="81.0" width="11.0" height="11.0" fill="#bb3716" class="pxm" style="animation-delay:0.391s"/><rect x="399.0" y="81.0" width="11.0" height="11.0" fill="#b7321a" class="pxm" style="animation-delay:0.433s"/><rect x="412.0" y="81.0" width="11.0" height="11.0" fill="#b5301c" class="pxm" style="animation-delay:0.447s"/><rect x="425.0" y="81.0" width="11.0" height="11.0" fill="#b42e1e" class="pxm" style="animation-delay:0.461s"/><rect x="438.0" y="81.0" width="11.0" height="11.0" fill="#b32d1f" class="pxm" style="animation-delay:0.475s"/><rect x="477.0" y="81.0" width="11.0" height="11.0" fill="#af2824" class="pxm" style="animation-delay:0.517s"/><rect x="490.0" y="81.0" width="11.0" height="11.0" fill="#ae2626" class="pxm" style="animation-delay:0.531s"/><rect x="529.0" y="81.0" width="11.0" height="11.0" fill="#aa212b" class="pxm" style="animation-delay:0.573s"/><rect x="542.0" y="81.0" width="11.0" height="11.0" fill="#a91f2c" class="pxm" style="animation-delay:0.587s"/><rect x="568.0" y="81.0" width="11.0" height="11.0" fill="#a61c30" class="pxm" style="animation-delay:0.615s"/><rect x="581.0" y="81.0" width="11.0" height="11.0" fill="#a51a31" class="pxm" style="animation-delay:0.629s"/><rect x="607.0" y="81.0" width="11.0" height="11.0" fill="#a21735" class="pxm" style="animation-delay:0.657s"/><rect x="620.0" y="81.0" width="11.0" height="11.0" fill="#a11536" class="pxm" style="animation-delay:0.671s"/><rect x="633.0" y="81.0" width="11.0" height="11.0" fill="#a01338" class="pxm" style="animation-delay:0.685s"/><rect x="22.0" y="94.0" width="11.0" height="11.0" fill="#b94c0a" class="pxm" style="animation-delay:0.036s"/><rect x="35.0" y="94.0" width="11.0" height="11.0" fill="#ba4c0a" class="pxm" style="animation-delay:0.050s"/><rect x="48.0" y="94.0" width="11.0" height="11.0" fill="#ba4b0a" class="pxm" style="animation-delay:0.064s"/><rect x="61.0" y="94.0" width="11.0" height="11.0" fill="#bb4b0a" class="pxm" style="animation-delay:0.078s"/><rect x="74.0" y="94.0" width="11.0" height="11.0" fill="#bb4a0b" class="pxm" style="animation-delay:0.092s"/><rect x="113.0" y="94.0" width="11.0" height="11.0" fill="#bd480b" class="pxm" style="animation-delay:0.134s"/><rect x="126.0" y="94.0" width="11.0" height="11.0" fill="#bd470b" class="pxm" style="animation-delay:0.148s"/><rect x="165.0" y="94.0" width="11.0" height="11.0" fill="#bf450b" class="pxm" style="animation-delay:0.190s"/><rect x="178.0" y="94.0" width="11.0" height="11.0" fill="#bf450b" class="pxm" style="animation-delay:0.204s"/><rect x="204.0" y="94.0" width="11.0" height="11.0" fill="#c0430c" class="pxm" style="animation-delay:0.232s"/><rect x="217.0" y="94.0" width="11.0" height="11.0" fill="#c1430c" class="pxm" style="animation-delay:0.246s"/><rect x="256.0" y="94.0" width="11.0" height="11.0" fill="#c1400d" class="pxm" style="animation-delay:0.288s"/><rect x="269.0" y="94.0" width="11.0" height="11.0" fill="#c03f0e" class="pxm" style="animation-delay:0.302s"/><rect x="308.0" y="94.0" width="11.0" height="11.0" fill="#bc3a13" class="pxm" style="animation-delay:0.344s"/><rect x="321.0" y="94.0" width="11.0" height="11.0" fill="#bb3815" class="pxm" style="animation-delay:0.358s"/><rect x="334.0" y="94.0" width="11.0" height="11.0" fill="#ba3616" class="pxm" style="animation-delay:0.372s"/><rect x="347.0" y="94.0" width="11.0" height="11.0" fill="#b93418" class="pxm" style="animation-delay:0.386s"/><rect x="412.0" y="94.0" width="11.0" height="11.0" fill="#b22c20" class="pxm" style="animation-delay:0.456s"/><rect x="425.0" y="94.0" width="11.0" height="11.0" fill="#b12a22" class="pxm" style="animation-delay:0.470s"/><rect x="477.0" y="94.0" width="11.0" height="11.0" fill="#ac2328" class="pxm" style="animation-delay:0.526s"/><rect x="490.0" y="94.0" width="11.0" height="11.0" fill="#ab222a" class="pxm" style="animation-delay:0.540s"/><rect x="529.0" y="94.0" width="11.0" height="11.0" fill="#a71d2f" class="pxm" style="animation-delay:0.582s"/><rect x="542.0" y="94.0" width="11.0" height="11.0" fill="#a61b30" class="pxm" style="animation-delay:0.596s"/><rect x="568.0" y="94.0" width="11.0" height="11.0" fill="#a31834" class="pxm" style="animation-delay:0.624s"/><rect x="581.0" y="94.0" width="11.0" height="11.0" fill="#a21635" class="pxm" style="animation-delay:0.638s"/><rect x="620.0" y="94.0" width="11.0" height="11.0" fill="#9f1239" class="pxm" style="animation-delay:0.680s"/><rect x="633.0" y="94.0" width="11.0" height="11.0" fill="#9f1239" class="pxm" style="animation-delay:0.694s"/></g></mask>
<clipPath id="clip"><rect id="reveal" x="22.0" y="127.0"
  width="507.8" height="20"/></clipPath></defs><path d="M8 15.0 V8 H15.0" fill="none" stroke="#8f8578" stroke-width="1"/><path d="M852 15.0 V8 H845.0" fill="none" stroke="#8f8578" stroke-width="1"/><path d="M8 188.0 V195 H15.0" fill="none" stroke="#8f8578" stroke-width="1"/><path d="M852 188.0 V195 H845.0" fill="none" stroke="#8f8578" stroke-width="1"/><text x="22.0" y="22.0" font-size="9.0" letter-spacing="1.6" text-anchor="start" class="fa">DHRUVAN KARTIK</text><text x="838.0" y="22.0" font-size="9.0" letter-spacing="1.6" text-anchor="end" class="fa">FORT WAYNE, INDIANA</text><rect x="22.0" y="42.0" width="11.0" height="11.0" fill="#b45309" class="px" style="animation-delay:0.000s"/><rect x="35.0" y="42.0" width="11.0" height="11.0" fill="#b55209" class="px" style="animation-delay:0.014s"/><rect x="48.0" y="42.0" width="11.0" height="11.0" fill="#b55209" class="px" style="animation-delay:0.028s"/><rect x="61.0" y="42.0" width="11.0" height="11.0" fill="#b65109" class="px" style="animation-delay:0.042s"/><rect x="74.0" y="42.0" width="11.0" height="11.0" fill="#b65009" class="px" style="animation-delay:0.056s"/><rect x="113.0" y="42.0" width="11.0" height="11.0" fill="#b84e0a" class="px" style="animation-delay:0.098s"/><rect x="126.0" y="42.0" width="11.0" height="11.0" fill="#b84e0a" class="px" style="animation-delay:0.112s"/><rect x="165.0" y="42.0" width="11.0" height="11.0" fill="#ba4c0a" class="px" style="animation-delay:0.154s"/><rect x="178.0" y="42.0" width="11.0" height="11.0" fill="#ba4b0a" class="px" style="animation-delay:0.168s"/><rect x="204.0" y="42.0" width="11.0" height="11.0" fill="#bb4a0b" class="px" style="animation-delay:0.196s"/><rect x="217.0" y="42.0" width="11.0" height="11.0" fill="#bc490b" class="px" style="animation-delay:0.210s"/><rect x="230.0" y="42.0" width="11.0" height="11.0" fill="#bc490b" class="px" style="animation-delay:0.224s"/><rect x="243.0" y="42.0" width="11.0" height="11.0" fill="#bd480b" class="px" style="animation-delay:0.238s"/><rect x="256.0" y="42.0" width="11.0" height="11.0" fill="#bd470b" class="px" style="animation-delay:0.252s"/><rect x="295.0" y="42.0" width="11.0" height="11.0" fill="#bf450b" class="px" style="animation-delay:0.294s"/><rect x="308.0" y="42.0" width="11.0" height="11.0" fill="#bf450b" class="px" style="animation-delay:0.308s"/><rect x="347.0" y="42.0" width="11.0" height="11.0" fill="#c1430c" class="px" style="animation-delay:0.350s"/><rect x="360.0" y="42.0" width="11.0" height="11.0" fill="#c1420c" class="px" style="animation-delay:0.364s"/><rect x="386.0" y="42.0" width="11.0" height="11.0" fill="#c2400d" class="px" style="animation-delay:0.392s"/><rect x="399.0" y="42.0" width="11.0" height="11.0" fill="#c03f0e" class="px" style="animation-delay:0.406s"/><rect x="438.0" y="42.0" width="11.0" height="11.0" fill="#bc3a13" class="px" style="animation-delay:0.448s"/><rect x="451.0" y="42.0" width="11.0" height="11.0" fill="#bb3815" class="px" style="animation-delay:0.462s"/><rect x="490.0" y="42.0" width="11.0" height="11.0" fill="#b7331a" class="px" style="animation-delay:0.504s"/><rect x="503.0" y="42.0" width="11.0" height="11.0" fill="#b6311b" class="px" style="animation-delay:0.518s"/><rect x="516.0" y="42.0" width="11.0" height="11.0" fill="#b52f1d" class="px" style="animation-delay:0.532s"/><rect x="529.0" y="42.0" width="11.0" height="11.0" fill="#b42e1e" class="px" style="animation-delay:0.546s"/><rect x="568.0" y="42.0" width="11.0" height="11.0" fill="#b02923" class="px" style="animation-delay:0.588s"/><rect x="581.0" y="42.0" width="11.0" height="11.0" fill="#af2725" class="px" style="animation-delay:0.602s"/><rect x="620.0" y="42.0" width="11.0" height="11.0" fill="#ab222a" class="px" style="animation-delay:0.644s"/><rect x="633.0" y="42.0" width="11.0" height="11.0" fill="#aa202c" class="px" style="animation-delay:0.658s"/><rect x="22.0" y="55.0" width="11.0" height="11.0" fill="#b55109" class="px" style="animation-delay:0.009s"/><rect x="35.0" y="55.0" width="11.0" height="11.0" fill="#b65109" class="px" style="animation-delay:0.023s"/><rect x="74.0" y="55.0" width="11.0" height="11.0" fill="#b74f0a" class="px" style="animation-delay:0.065s"/><rect x="87.0" y="55.0" width="11.0" height="11.0" fill="#b84e0a" class="px" style="animation-delay:0.079s"/><rect x="113.0" y="55.0" width="11.0" height="11.0" fill="#b94d0a" class="px" style="animation-delay:0.107s"/><rect x="126.0" y="55.0" width="11.0" height="11.0" fill="#b94c0a" class="px" style="animation-delay:0.121s"/><rect x="165.0" y="55.0" width="11.0" height="11.0" fill="#bb4a0a" class="px" style="animation-delay:0.163s"/><rect x="178.0" y="55.0" width="11.0" height="11.0" fill="#bb4a0b" class="px" style="animation-delay:0.177s"/><rect x="204.0" y="55.0" width="11.0" height="11.0" fill="#bc480b" class="px" style="animation-delay:0.205s"/><rect x="217.0" y="55.0" width="11.0" height="11.0" fill="#bd480b" class="px" style="animation-delay:0.219s"/><rect x="256.0" y="55.0" width="11.0" height="11.0" fill="#be460b" class="px" style="animation-delay:0.261s"/><rect x="269.0" y="55.0" width="11.0" height="11.0" fill="#bf450b" class="px" style="animation-delay:0.275s"/><rect x="295.0" y="55.0" width="11.0" height="11.0" fill="#c0440c" class="px" style="animation-delay:0.303s"/><rect x="308.0" y="55.0" width="11.0" height="11.0" fill="#c0430c" class="px" style="animation-delay:0.317s"/><rect x="347.0" y="55.0" width="11.0" height="11.0" fill="#c2410c" class="px" style="animation-delay:0.359s"/><rect x="360.0" y="55.0" width="11.0" height="11.0" fill="#c1400d" class="px" style="animation-delay:0.373s"/><rect x="386.0" y="55.0" width="11.0" height="11.0" fill="#be3c11" class="px" style="animation-delay:0.401s"/><rect x="399.0" y="55.0" width="11.0" height="11.0" fill="#bd3a12" class="px" style="animation-delay:0.415s"/><rect x="438.0" y="55.0" width="11.0" height="11.0" fill="#b93517" class="px" style="animation-delay:0.457s"/><rect x="451.0" y="55.0" width="11.0" height="11.0" fill="#b83419" class="px" style="animation-delay:0.471s"/><rect x="477.0" y="55.0" width="11.0" height="11.0" fill="#b6301c" class="px" style="animation-delay:0.499s"/><rect x="490.0" y="55.0" width="11.0" height="11.0" fill="#b42f1e" class="px" style="animation-delay:0.513s"/><rect x="529.0" y="55.0" width="11.0" height="11.0" fill="#b02923" class="px" style="animation-delay:0.555s"/><rect x="542.0" y="55.0" width="11.0" height="11.0" fill="#af2824" class="px" style="animation-delay:0.569s"/><rect x="568.0" y="55.0" width="11.0" height="11.0" fill="#ad2427" class="px" style="animation-delay:0.597s"/><rect x="581.0" y="55.0" width="11.0" height="11.0" fill="#ab2329" class="px" style="animation-delay:0.611s"/><rect x="594.0" y="55.0" width="11.0" height="11.0" fill="#aa212b" class="px" style="animation-delay:0.625s"/><rect x="620.0" y="55.0" width="11.0" height="11.0" fill="#a81e2e" class="px" style="animation-delay:0.653s"/><rect x="633.0" y="55.0" width="11.0" height="11.0" fill="#a61c30" class="px" style="animation-delay:0.667s"/><rect x="22.0" y="68.0" width="11.0" height="11.0" fill="#b7500a" class="px" style="animation-delay:0.018s"/><rect x="35.0" y="68.0" width="11.0" height="11.0" fill="#b74f0a" class="px" style="animation-delay:0.032s"/><rect x="74.0" y="68.0" width="11.0" height="11.0" fill="#b94d0a" class="px" style="animation-delay:0.074s"/><rect x="87.0" y="68.0" width="11.0" height="11.0" fill="#b94c0a" class="px" style="animation-delay:0.088s"/><rect x="113.0" y="68.0" width="11.0" height="11.0" fill="#ba4b0a" class="px" style="animation-delay:0.116s"/><rect x="126.0" y="68.0" width="11.0" height="11.0" fill="#bb4b0a" class="px" style="animation-delay:0.130s"/><rect x="139.0" y="68.0" width="11.0" height="11.0" fill="#bb4a0b" class="px" style="animation-delay:0.144s"/><rect x="152.0" y="68.0" width="11.0" height="11.0" fill="#bc490b" class="px" style="animation-delay:0.158s"/><rect x="165.0" y="68.0" width="11.0" height="11.0" fill="#bc490b" class="px" style="animation-delay:0.172s"/><rect x="178.0" y="68.0" width="11.0" height="11.0" fill="#bd480b" class="px" style="animation-delay:0.186s"/><rect x="204.0" y="68.0" width="11.0" height="11.0" fill="#be470b" class="px" style="animation-delay:0.214s"/><rect x="217.0" y="68.0" width="11.0" height="11.0" fill="#be460b" class="px" style="animation-delay:0.228s"/><rect x="230.0" y="68.0" width="11.0" height="11.0" fill="#bf450b" class="px" style="animation-delay:0.242s"/><rect x="243.0" y="68.0" width="11.0" height="11.0" fill="#bf450b" class="px" style="animation-delay:0.256s"/><rect x="256.0" y="68.0" width="11.0" height="11.0" fill="#c0440b" class="px" style="animation-delay:0.270s"/><rect x="295.0" y="68.0" width="11.0" height="11.0" fill="#c1420c" class="px" style="animation-delay:0.312s"/><rect x="308.0" y="68.0" width="11.0" height="11.0" fill="#c2410c" class="px" style="animation-delay:0.326s"/><rect x="347.0" y="68.0" width="11.0" height="11.0" fill="#bf3d10" class="px" style="animation-delay:0.368s"/><rect x="360.0" y="68.0" width="11.0" height="11.0" fill="#be3b12" class="px" style="animation-delay:0.382s"/><rect x="386.0" y="68.0" width="11.0" height="11.0" fill="#bb3815" class="px" style="animation-delay:0.410s"/><rect x="399.0" y="68.0" width="11.0" height="11.0" fill="#ba3616" class="px" style="animation-delay:0.424s"/><rect x="438.0" y="68.0" width="11.0" height="11.0" fill="#b6311b" class="px" style="animation-delay:0.466s"/><rect x="451.0" y="68.0" width="11.0" height="11.0" fill="#b52f1d" class="px" style="animation-delay:0.480s"/><rect x="477.0" y="68.0" width="11.0" height="11.0" fill="#b22c20" class="px" style="animation-delay:0.508s"/><rect x="490.0" y="68.0" width="11.0" height="11.0" fill="#b12a22" class="px" style="animation-delay:0.522s"/><rect x="503.0" y="68.0" width="11.0" height="11.0" fill="#b02923" class="px" style="animation-delay:0.536s"/><rect x="516.0" y="68.0" width="11.0" height="11.0" fill="#af2725" class="px" style="animation-delay:0.550s"/><rect x="529.0" y="68.0" width="11.0" height="11.0" fill="#ad2527" class="px" style="animation-delay:0.564s"/><rect x="542.0" y="68.0" width="11.0" height="11.0" fill="#ac2328" class="px" style="animation-delay:0.578s"/><rect x="568.0" y="68.0" width="11.0" height="11.0" fill="#a9202c" class="px" style="animation-delay:0.606s"/><rect x="581.0" y="68.0" width="11.0" height="11.0" fill="#a81e2d" class="px" style="animation-delay:0.620s"/><rect x="594.0" y="68.0" width="11.0" height="11.0" fill="#a71d2f" class="px" style="animation-delay:0.634s"/><rect x="607.0" y="68.0" width="11.0" height="11.0" fill="#a61b30" class="px" style="animation-delay:0.648s"/><rect x="620.0" y="68.0" width="11.0" height="11.0" fill="#a41932" class="px" style="animation-delay:0.662s"/><rect x="633.0" y="68.0" width="11.0" height="11.0" fill="#a31834" class="px" style="animation-delay:0.676s"/><rect x="22.0" y="81.0" width="11.0" height="11.0" fill="#b84e0a" class="px" style="animation-delay:0.027s"/><rect x="35.0" y="81.0" width="11.0" height="11.0" fill="#b84d0a" class="px" style="animation-delay:0.041s"/><rect x="74.0" y="81.0" width="11.0" height="11.0" fill="#ba4b0a" class="px" style="animation-delay:0.083s"/><rect x="87.0" y="81.0" width="11.0" height="11.0" fill="#ba4b0a" class="px" style="animation-delay:0.097s"/><rect x="113.0" y="81.0" width="11.0" height="11.0" fill="#bb4a0b" class="px" style="animation-delay:0.125s"/><rect x="126.0" y="81.0" width="11.0" height="11.0" fill="#bc490b" class="px" style="animation-delay:0.139s"/><rect x="165.0" y="81.0" width="11.0" height="11.0" fill="#bd470b" class="px" style="animation-delay:0.181s"/><rect x="178.0" y="81.0" width="11.0" height="11.0" fill="#be460b" class="px" style="animation-delay:0.195s"/><rect x="204.0" y="81.0" width="11.0" height="11.0" fill="#bf450b" class="px" style="animation-delay:0.223s"/><rect x="217.0" y="81.0" width="11.0" height="11.0" fill="#bf440b" class="px" style="animation-delay:0.237s"/><rect x="256.0" y="81.0" width="11.0" height="11.0" fill="#c1420c" class="px" style="animation-delay:0.279s"/><rect x="269.0" y="81.0" width="11.0" height="11.0" fill="#c1420c" class="px" style="animation-delay:0.293s"/><rect x="295.0" y="81.0" width="11.0" height="11.0" fill="#c13f0d" class="px" style="animation-delay:0.321s"/><rect x="308.0" y="81.0" width="11.0" height="11.0" fill="#c03e0f" class="px" style="animation-delay:0.335s"/><rect x="347.0" y="81.0" width="11.0" height="11.0" fill="#bc3914" class="px" style="animation-delay:0.377s"/><rect x="360.0" y="81.0" width="11.0" height="11.0" fill="#bb3716" class="px" style="animation-delay:0.391s"/><rect x="399.0" y="81.0" width="11.0" height="11.0" fill="#b7321a" class="px" style="animation-delay:0.433s"/><rect x="412.0" y="81.0" width="11.0" height="11.0" fill="#b5301c" class="px" style="animation-delay:0.447s"/><rect x="425.0" y="81.0" width="11.0" height="11.0" fill="#b42e1e" class="px" style="animation-delay:0.461s"/><rect x="438.0" y="81.0" width="11.0" height="11.0" fill="#b32d1f" class="px" style="animation-delay:0.475s"/><rect x="477.0" y="81.0" width="11.0" height="11.0" fill="#af2824" class="px" style="animation-delay:0.517s"/><rect x="490.0" y="81.0" width="11.0" height="11.0" fill="#ae2626" class="px" style="animation-delay:0.531s"/><rect x="529.0" y="81.0" width="11.0" height="11.0" fill="#aa212b" class="px" style="animation-delay:0.573s"/><rect x="542.0" y="81.0" width="11.0" height="11.0" fill="#a91f2c" class="px" style="animation-delay:0.587s"/><rect x="568.0" y="81.0" width="11.0" height="11.0" fill="#a61c30" class="px" style="animation-delay:0.615s"/><rect x="581.0" y="81.0" width="11.0" height="11.0" fill="#a51a31" class="px" style="animation-delay:0.629s"/><rect x="607.0" y="81.0" width="11.0" height="11.0" fill="#a21735" class="px" style="animation-delay:0.657s"/><rect x="620.0" y="81.0" width="11.0" height="11.0" fill="#a11536" class="px" style="animation-delay:0.671s"/><rect x="633.0" y="81.0" width="11.0" height="11.0" fill="#a01338" class="px" style="animation-delay:0.685s"/><rect x="22.0" y="94.0" width="11.0" height="11.0" fill="#b94c0a" class="px" style="animation-delay:0.036s"/><rect x="35.0" y="94.0" width="11.0" height="11.0" fill="#ba4c0a" class="px" style="animation-delay:0.050s"/><rect x="48.0" y="94.0" width="11.0" height="11.0" fill="#ba4b0a" class="px" style="animation-delay:0.064s"/><rect x="61.0" y="94.0" width="11.0" height="11.0" fill="#bb4b0a" class="px" style="animation-delay:0.078s"/><rect x="74.0" y="94.0" width="11.0" height="11.0" fill="#bb4a0b" class="px" style="animation-delay:0.092s"/><rect x="113.0" y="94.0" width="11.0" height="11.0" fill="#bd480b" class="px" style="animation-delay:0.134s"/><rect x="126.0" y="94.0" width="11.0" height="11.0" fill="#bd470b" class="px" style="animation-delay:0.148s"/><rect x="165.0" y="94.0" width="11.0" height="11.0" fill="#bf450b" class="px" style="animation-delay:0.190s"/><rect x="178.0" y="94.0" width="11.0" height="11.0" fill="#bf450b" class="px" style="animation-delay:0.204s"/><rect x="204.0" y="94.0" width="11.0" height="11.0" fill="#c0430c" class="px" style="animation-delay:0.232s"/><rect x="217.0" y="94.0" width="11.0" height="11.0" fill="#c1430c" class="px" style="animation-delay:0.246s"/><rect x="256.0" y="94.0" width="11.0" height="11.0" fill="#c1400d" class="px" style="animation-delay:0.288s"/><rect x="269.0" y="94.0" width="11.0" height="11.0" fill="#c03f0e" class="px" style="animation-delay:0.302s"/><rect x="308.0" y="94.0" width="11.0" height="11.0" fill="#bc3a13" class="px" style="animation-delay:0.344s"/><rect x="321.0" y="94.0" width="11.0" height="11.0" fill="#bb3815" class="px" style="animation-delay:0.358s"/><rect x="334.0" y="94.0" width="11.0" height="11.0" fill="#ba3616" class="px" style="animation-delay:0.372s"/><rect x="347.0" y="94.0" width="11.0" height="11.0" fill="#b93418" class="px" style="animation-delay:0.386s"/><rect x="412.0" y="94.0" width="11.0" height="11.0" fill="#b22c20" class="px" style="animation-delay:0.456s"/><rect x="425.0" y="94.0" width="11.0" height="11.0" fill="#b12a22" class="px" style="animation-delay:0.470s"/><rect x="477.0" y="94.0" width="11.0" height="11.0" fill="#ac2328" class="px" style="animation-delay:0.526s"/><rect x="490.0" y="94.0" width="11.0" height="11.0" fill="#ab222a" class="px" style="animation-delay:0.540s"/><rect x="529.0" y="94.0" width="11.0" height="11.0" fill="#a71d2f" class="px" style="animation-delay:0.582s"/><rect x="542.0" y="94.0" width="11.0" height="11.0" fill="#a61b30" class="px" style="animation-delay:0.596s"/><rect x="568.0" y="94.0" width="11.0" height="11.0" fill="#a31834" class="px" style="animation-delay:0.624s"/><rect x="581.0" y="94.0" width="11.0" height="11.0" fill="#a21635" class="px" style="animation-delay:0.638s"/><rect x="620.0" y="94.0" width="11.0" height="11.0" fill="#9f1239" class="px" style="animation-delay:0.680s"/><rect x="633.0" y="94.0" width="11.0" height="11.0" fill="#9f1239" class="px" style="animation-delay:0.694s"/><g mask="url(#bm)" class="rm-hide"><rect id="sweep" x="-158.0" y="32.0" width="130" height="85" fill="url(#shine)"/></g><g clip-path="url(#clip)"><text x="22.0" y="137.0" font-size="13.0" text-anchor="start" class="mu">compilers, graphics, ml infrastructure, and the tools around them</text></g><g clip-path="url(#clip)"><rect id="caret" x="529.8" y="130.0" width="7" height="14" fill="#b45309"/></g><line x1="22.0" y1="149.0" x2="838.0" y2="149.0" stroke="#ddd4c6" stroke-width="1" class="rule"/><text x="22.0" y="164.0" font-size="9.0" letter-spacing="1.6" text-anchor="start" class="fa">FOCUS</text><text x="22.0" y="181.0" font-size="12.0" text-anchor="start" class="ac">compilers &amp; systems</text><text x="226.0" y="164.0" font-size="9.0" letter-spacing="1.6" text-anchor="start" class="fa">UPSTREAM</text><text x="226.0" y="181.0" font-size="12.0" text-anchor="start" class="ok">llvm / clang</text><text x="430.0" y="164.0" font-size="9.0" letter-spacing="1.6" text-anchor="start" class="fa">ALSO</text><text x="430.0" y="181.0" font-size="12.0" text-anchor="start" class="mu">graphics · ml infra · web</text><text x="634.0" y="164.0" font-size="9.0" letter-spacing="1.6" text-anchor="start" class="fa">DEGREE</text><text x="634.0" y="181.0" font-size="12.0" text-anchor="start" class="mu">purdue fw · may 2027</text></svg>